<?xml version="1.0" encoding="utf-8"?>
<!-- Generator: Adobe Illustrator 21.1.0, SVG Export Plug-In . SVG Version: 6.00 Build 0)  -->
<svg version="1.1" xmlns="http://www.w3.org/2000/svg" xmlns:xlink="http://www.w3.org/1999/xlink" x="0px" y="0px"
	 viewBox="0 0 262.3 100" style="enable-background:new 0 0 262.3 100;" xml:space="preserve">
<style type="text/css">
	.st0{clip-path:url(#SVGID_2_);}
	.st1{clip-path:url(#SVGID_4_);fill:#1B2E80;}
	.st2{fill:none;stroke:#1B2E80;stroke-width:3;stroke-linecap:round;stroke-miterlimit:10;}
	.st3{fill:none;stroke:#1B2E80;stroke-width:3;stroke-miterlimit:10;}
	.st4{fill:#DA3B21;stroke:#1B2E80;stroke-width:2;stroke-miterlimit:10;}
	.st5{fill:#1B2E80;}
	.st6{fill:#FFF3DE;}
	.st7{fill:#F2CC52;}
	.st8{fill:#DA3B21;}
</style>
<g id="Finn_x27_s">
	<g>
		<g>
			<defs>
				<rect id="SVGID_1_" x="1" y="9.3" width="304.1" height="81.4"/>
			</defs>
			<clipPath id="SVGID_2_">
				<use xlink:href="#SVGID_1_"  style="overflow:visible;"/>
			</clipPath>
			<g class="st0">
				<defs>
					<rect id="SVGID_3_" x="1" y="9.3" width="304.1" height="81.4"/>
				</defs>
				<clipPath id="SVGID_4_">
					<use xlink:href="#SVGID_3_"  style="overflow:visible;"/>
				</clipPath>
				<path class="st1" d="M89.5,52.8c0,2.8,0,5.6,0,8.5c0,0.8,0,1.7,0.6,2.2c1.2,1,2.9-0.4,3.6-1.8c2.7-5.2,2.6-11.4,4-17.1
					c1.4-5.7,5.3-11.7,11.2-12c2-0.1,4.2,0.5,6.1-0.1c2-0.6,3.5-2.3,5.6-2.6c2.8-0.4,5.2,2.1,6,4.8c0.7,2.7,0.2,5.5-0.1,8.3
					c-0.3,2.8-0.4,5.8,1.1,8.1c4.4-1.2,5.9-6.5,7.4-10.9c1.8-5.5,4.5-10.8,8-15.5c2.1-2.8,4.6-5.5,7.7-7.2c3.1-1.7,7-2.2,10.2-0.8
					c3.5,1.6,5.8,5.2,6.6,9c0.3,1.3,0.5,2.6,1.3,3.7c0.9,1.2,2.5,1.8,3.7,2.6c1.3,0.9,2.3,2.6,1.5,3.9c-0.8,1.3-2.8,1.2-4,2.2
					c-1.3,1-1.3,3-1.7,4.6c-1,4.1-5,6.8-9.1,7.9c-2.5,0.7-5.1,0.9-7.6,0.2c-2.5-0.7-4.7-2.5-5.5-5c-1.1-3.2,0.6-6.9,3.2-9.1
					c2.6-2.2,6-3.2,9.3-4c2-0.4,4.4-1.2,4.9-3.1c0.3-1.2-0.2-2.4-0.7-3.5c-1-2.3-2.2-4.7-4.4-5.7c-2.8-1.2-6.1,0.4-8.3,2.5
					c-7.3,6.6-9.7,16.8-13.6,25.9c-0.9,2-1.9,4.1-3.5,5.6c-1.6,1.5-4,2.5-6.1,1.8c-3.1-0.9-4.5-4.6-4.7-7.8
					c-0.2-3.2,0.5-6.6-0.5-9.7c-0.3-0.9-0.8-1.8-1.6-2c-0.9-0.2-1.8,0.4-2.5,1c-5.3,5.5-2.5,14.7-5,21.9c-0.4,1-0.9,2-1.8,2.6
					c-0.9,0.5-2.3,0.4-2.8-0.6c-0.3-0.5-0.2-1.1-0.1-1.7c0.6-5.8,1.2-11.6,1.8-17.3c0.2-1.5,0.2-3.4-1.1-4.3c-1.2-0.8-2.9,0-3.9,1.1
					c-1.5,1.6-2,3.9-2.5,6.1c-0.9,4-1.8,8-2.8,12.1c-0.7,3.2-1.5,6.5-3.6,8.9c-2.1,2.4-6,3.7-8.7,1.8c-2.5-1.7-2.9-5.3-2.5-8.3
					c0.4-3,1.3-6.1,0.4-9.1c-0.2-0.5-0.4-1.1-0.8-1.5c-1.3-1.1-3.2,0.2-4.2,1.5c-4.4,6-3.4,14.2-5.3,21.4c-0.3,1.1-0.7,2.3-1.6,3.1
					c-0.9,0.8-2.4,1-3.2,0.1c-0.6-0.6-0.7-1.5-0.7-2.4c0-6.5,2.8-13.1,1.2-19.5c-0.1-0.6-0.4-1.2-0.9-1.5c-0.7-0.4-1.6,0.1-2.3,0.6
					c-2.8,2.4-4.2,6.1-4.9,9.7c-0.7,3.6-1,7.4-2.1,10.9c-1.1,3.5-3.4,6.9-6.9,8.2c-3.5,1.3-8.1-0.5-8.9-4.1c-1,1.7-2,3.3-3,5
					c-0.6,1-1.6,3.3-2.7,1.5c-1.2-1.9,1.1-6.4,1.9-8.1c2.5-5.4,6.4-10.6,6.3-16.7c0-2-0.2-4.5,1.6-5.4c1.6-0.7,3.5,0.9,3.8,2.7
					c0.3,1.8-0.4,3.5-0.9,5.3c-1.5,4.9-1.5,10.2,0.1,15.1c2.8-1,4-4.2,4.6-7.1c1.1-5.1,1.5-10.4,3.6-15.1c2.2-4.7,6.7-8.9,11.9-8.6
					c1.2,0.1,2.5,0.4,3.7,0.3c2.7-0.3,4.6-2.7,6.8-4.3c2.2-1.6,5.9-2.2,7.2,0.2c0.4,0.8,0.4,1.7,0.4,2.6
					C89.5,47.5,89.5,50.1,89.5,52.8 M155.2,47c0.7,0,1.4,0,1.8-0.1c2.4-0.4,4.5-1.8,6.2-3.6c1.1-1.1,2-2.7,1.5-4.2
					c-0.3-1-1.3-1.7-2.3-2c-1-0.3-2.1-0.2-3.1-0.1c-2.2,0.3-4.4,0.9-6.2,2.2c-1.3,1-3.7,3.8-2.9,5.7C150.9,46.4,153.3,46.9,155.2,47
					"/>
				<path class="st1" d="M46.8,15.5c-0.1,1.4-0.8,2.9-1.4,4.2c-2.6,5.7-4.5,11.7-5.6,17.8c-0.1,0.3-0.1,0.6,0,0.9
					c0.4,0.9,1.7,0.5,2.5,0c2.7-1.8,5-4.4,8.1-5.6c1-0.4,2.2-0.6,3.2-0.2c1.2,0.5,1.9,1.9,2,3.3c0.1,1.9-1,3.7-2.6,4.6
					c-1.2,0.6-2.6,0.8-4,1c-5.3,0.9-10.4,4-12.9,8.8c-1.7,3.2-2.1,6.9-2.7,10.5c-1.3,8.1-3.4,16.1-6.2,23.8
					c-0.6,1.6-1.5,3.4-3.2,3.6c-3.5,0.4-6.3-5.7-7.4-8.2c-0.4-0.8-0.7-1.7-0.6-2.6c0.1-0.9,0.7-1.8,1.6-1.9c1.3-0.1,2.1,1.3,2.6,2.5
					c0.4,1.2,1.1,2.7,2.4,2.7c1.5,0.1,2.2-1.7,2.6-3.1c1.9-7.6,3.3-15.3,4.2-23.1c0-0.3,0-0.6-0.2-0.7c-0.2-0.1-0.4-0.1-0.5,0
					c-4.1,1-7.8,3.7-10,7.3c-0.5,0.8-1,1.7-1.7,2.4c-0.7,0.7-1.8,1-2.7,0.6c-1.4-0.7-1.3-2.8-0.7-4.3c1.4-3.3,4.1-5.9,7-7.9
					c2.9-2.1,6.1-3.7,9-5.7c1.4-0.9,2.7-1.9,3.5-3.4c0.5-1,0.8-2.2,1-3.3c0.5-2.8,1-5.7,1.5-8.5c0.1-0.6,0.2-1.4-0.3-1.7
					c-0.5-0.3-1.1-0.1-1.6,0.1c-4.2,1.9-8.4,4.1-12.8,5.5c-4.4,1.5-9.2,2.2-13.8,1.3c-1.3-0.3-2.6-0.7-3.6-1.7
					c-0.9-0.9-1.4-2.5-0.7-3.7c0.6-1.1,2-1.5,3.3-1.4c1.2,0.1,2.4,0.6,3.6,1c3.7,1.2,7.8,0.9,11.6-0.1c3.8-1,7.3-2.7,10.8-4.4
					c2.4-1.2,4.9-2.5,6-4.9c1.3-2.9,0.2-6.8,2.5-8.9c1.8-1.6,5.1-0.9,6,1.4C46.8,14.1,46.8,14.8,46.8,15.5"/>
				<path class="st1" d="M131.9,23.9c-1.3,0.2-2.1-0.9-1.5-2.6c0.8-2.3,0.9-4.8,1.7-7.2c0.3-0.9,0.7-1.8,1.3-2.4
					c0.5-0.5,2.2-1.3,2.9-0.8c1.3,1-0.3,4.6-0.6,5.8c-0.3,1.2-0.3,2.3-0.6,3.5c-0.3,1.2-0.8,2.3-1.8,3
					C132.8,23.6,132.3,23.8,131.9,23.9"/>
				<path class="st1" d="M47.8,46c0.1-1.5,0.8-2.7,2.1-2.3c1.1,0.3,2.5,1.2,3,2.3c0.6,1.4-0.8,2.6-1.9,3.3
					C48.8,50.8,47.7,48.2,47.8,46"/>
			</g>
		</g>
	</g>
</g>
<g id="Layer_3">
	<path class="st2" d="M87.8,88.4c0,0,8.5-11.3,32.2-13.7c19.7-2,54.6,5.3,81.4-10.2c16.2-9.4,31-32.2,31-32.2"/>
	<path class="st3" d="M216.5,82.2c0,0-7.3,4.4-17.4,4c-13.7-0.6-31.5,2-34.3-12.2c0,0-0.3-9.7,16.4-18.3c13.1-6.7,9.9-22.7,9.9-22.7
		"/>
	<path class="st4" d="M203.2,96.6c0,0-0.2-9.3-10.8-10.4C192.5,86.2,192.2,93.7,203.2,96.6z"/>
	<path class="st4" d="M203,74.9c0,0-9.3,0.2-10.4,10.7C192.7,85.6,200.2,86,203,74.9z"/>
	<path class="st5" d="M150.1,54.9c-1-0.1-10.5,7.7-17.9,9.2c-9.5,1.9-10.9,10.3-10.9,10.3s4.8-6,16.7-7.2
		C145.6,66.5,151.1,55.1,150.1,54.9z"/>
	<path class="st4" d="M190.9,33.4c0,0-0.3-9.3-10.8-10.3C180.1,23.1,179.8,30.6,190.9,33.4z"/>
	<path class="st4" d="M201.2,22.1c0,0-9.3,0.9-9.6,11.4C191.6,33.5,199.1,33.3,201.2,22.1z"/>
	<path class="st4" d="M173.1,60.4c0,0,7.8-6.3,1.9-15.9C175,44.5,168.4,49.1,173.1,60.4z"/>
	<path class="st4" d="M188.9,64.9c0,0-5.1-8.6-15.5-4.1C173.5,60.8,177.1,68,188.9,64.9z"/>
	<g>
		<path class="st5" d="M229.5,63c-4.1,0-7.8-2.2-9.5-5.5c-0.9-1.8-1.7-4.9,0-9.5c-2.9,2.1-5.5,2.6-7.3,2.6c-6,0-10-5.5-10-10.7
			c0-2.9,1.2-5.4,3.3-7.3c1.7-1.5,3.8-2.4,6.5-2.9c-6.9-3.2-7.3-8.5-7.1-10.4c0.4-5.5,5.1-10.1,10.4-10.1c2.1,0,5.5,0.7,8.8,4.7
			c-0.4-3.9,0.6-6.5,1.7-8.2c1.8-2.7,4.9-4.3,8.4-4.3c4.1,0,7.8,2.2,9.5,5.5c0.9,1.8,1.7,4.9,0,9.5c2.9-2.1,5.5-2.6,7.3-2.6
			c3.5,0,6.7,1.9,8.5,5.1c1.9,3.4,2,7.4,0.2,10.5c-1.6,2.8-4.5,4.6-8.5,5.3c6.9,3.2,7.3,8.5,7.2,10.4c-0.3,5.5-5.1,10.1-10.4,10.1
			c-2.1,0-5.5-0.7-8.8-4.7c0.4,3.9-0.6,6.5-1.7,8.2C236.1,61.5,233,63,229.5,63z"/>
		<path class="st6" d="M234.5,2.6c7.2,0,14.4,7.5,4.7,20.3c4.4-5.7,8.6-7.9,12.1-7.9c10.5,0,14.6,19.1-3.6,19.1
			c-1.2,0-2.6-0.1-4-0.3c21.2,2.7,14.5,20.4,4.7,20.4c-4,0-8.5-2.9-11.9-11c5.4,13-0.8,18.7-7.1,18.7c-7.2,0-14.4-7.5-4.7-20.3
			c-4.4,5.7-8.6,7.9-12.1,7.9c-10.5,0-14.6-19.1,3.6-19.1c1.2,0,2.6,0.1,4,0.3c-21.2-2.7-14.5-20.4-4.7-20.4c4,0,8.5,2.9,11.9,11
			C222,8.4,228.2,2.6,234.5,2.6 M234.5,0.5L234.5,0.5c-3.9,0-7.2,1.7-9.3,4.8c-0.9,1.4-1.8,3.4-2,6.1c-2.9-2.6-5.8-3.1-7.7-3.1
			c-5.8,0-11,5.1-11.4,11c-0.2,3.2,1,6.3,3.5,8.6c0.6,0.5,1.2,1,1.9,1.5c-3.8,1.3-5.7,3.6-6.6,5.1c-2,3.4-1.9,7.8,0.2,11.5
			c2,3.5,5.6,5.7,9.4,5.7c1.5,0,3.4-0.3,5.6-1.4c-0.7,3.5,0.1,6.1,0.8,7.7c1.8,3.7,5.9,6.1,10.4,6.1c3.9,0,7.2-1.7,9.3-4.8
			c0.9-1.4,1.8-3.4,2-6.1c2.9,2.6,5.8,3.1,7.7,3.1c5.8,0,11-5.1,11.4-11c0.2-3.2-1-6.3-3.5-8.6c-0.6-0.5-1.2-1-1.8-1.5
			c5.8-2,8-6.5,8-10.5c0-2.9-1.1-5.8-3-8c-2.1-2.4-5-3.8-8.1-3.8c-1.5,0-3.4,0.3-5.6,1.4c0.7-3.5-0.1-6.1-0.8-7.7
			C243,2.9,239,0.5,234.5,0.5L234.5,0.5z"/>
	</g>
	<g>
		<path class="st7" d="M233.3,30.5c21.8-28.5-16-33.4-2.2-0.3c-13.8-33.1-36.9-2.8-1.3,1.8c-35.6-4.6-20.9,30.6,0.9,2
			c-21.8,28.5,16,33.4,2.2,0.3c13.8,33.1,36.9,2.8,1.3-1.8C269.8,37.2,255.1,2,233.3,30.5z"/>
	</g>
	<g>
		<path class="st8" d="M231.8,36.5c-1.1-0.1-2.2-0.6-2.9-1.4s-1.1-1.9-1.1-3.1c0.1-2.2,2-4,4.2-4c0.1,0,0.2,0,0.2,0
			c1.1,0.1,2.2,0.6,2.9,1.4c0.8,0.8,1.1,1.9,1.1,3.1c-0.1,2.2-2,4-4.2,4C231.9,36.5,231.8,36.5,231.8,36.5z"/>
		<path class="st5" d="M232,28.8c0.1,0,0.1,0,0.2,0c1.9,0.1,3.3,1.7,3.2,3.6c-0.1,1.8-1.6,3.3-3.4,3.3c-0.1,0-0.1,0-0.2,0
			c-1.9-0.1-3.3-1.7-3.2-3.6C228.6,30.3,230.2,28.8,232,28.8 M232,27.3L232,27.3c-2.7,0-4.9,2.1-5,4.8c-0.1,1.3,0.4,2.6,1.3,3.6
			c0.9,1,2.1,1.6,3.5,1.7c0.1,0,0.2,0,0.3,0c2.7,0,4.9-2.1,5-4.8c0.1-2.8-2-5.1-4.7-5.3C232.2,27.3,232.1,27.3,232,27.3L232,27.3z"
			/>
	</g>
	<path class="st4" d="M216.5,82c0,0,8.4-4.2,4.8-14.1C221.3,67.9,214.4,70.7,216.5,82z"/>
	<path class="st4" d="M231.1,86.6c0,0-4.7-8.1-14.4-3.9C216.7,82.6,220,89.4,231.1,86.6z"/>
	<path class="st5" d="M160.7,95.3c-4.8-3.2-11-8-23.9-9.5C125.1,84.6,121,74.5,121,74.5s7.5,6.8,21.8,7.1
		C152,81.9,162.5,95,160.7,95.3z"/>
</g>
</svg>
