<?xml version="1.0" encoding="utf-8"?>
<!-- Generator: Adobe Illustrator 21.1.0, SVG Export Plug-In . SVG Version: 6.00 Build 0)  -->
<svg version="1.1" id="Layer_1" xmlns="http://www.w3.org/2000/svg" xmlns:xlink="http://www.w3.org/1999/xlink" x="0px" y="0px"
	 viewBox="0 0 661 308" style="enable-background:new 0 0 661 308;" xml:space="preserve">
<style type="text/css">
	.st0{fill:#1B2E80;}
</style>
<g>
	<g>
		<path class="st0" d="M334.7,164.4c0,10.7-0.1,21.3-0.1,32c0,3,0.2,6.4,2.4,8.3c4.5,3.9,11-1.6,13.7-6.9
			c10-19.8,9.8-43.1,15.1-64.7c5.3-21.6,20.2-44.3,42.4-45.4c7.7-0.4,15.7,1.9,23.1-0.2c7.4-2.2,13.3-8.6,21-9.7
			c10.4-1.5,19.8,7.9,22.6,18s0.8,20.9-0.5,31.4c-1.2,10.5-1.4,21.8,4.2,30.7c16.7-4.7,22.5-24.7,27.8-41.2
			c6.8-21,17-40.8,30.2-58.4c8-10.7,17.2-20.8,29-27.1s26.3-8.5,38.5-3.1c13.4,5.9,21.8,19.8,25,34c1.1,4.8,1.8,10,4.8,14
			c3.5,4.6,9.4,6.7,14.1,10c4.7,3.3,8.6,9.8,5.5,14.8c-3.1,5-10.7,4.5-15.3,8.2c-4.9,4-4.8,11.2-6.3,17.3
			c-3.7,15.5-19,25.7-34.4,29.8c-9.4,2.5-19.5,3.4-28.8,0.6c-9.3-2.8-17.7-9.6-20.8-18.8c-4.1-12.3,2.1-26.1,12-34.5
			c9.9-8.3,22.7-12.2,35.3-15c7.5-1.7,16.5-4.4,18.5-11.8c1.2-4.4-0.7-9.1-2.5-13.3c-3.7-8.6-8.2-18-16.8-21.7
			c-10.7-4.6-22.9,1.6-31.6,9.3c-27.8,24.8-36.7,63.7-51.4,97.9c-3.3,7.7-7.1,15.5-13.2,21.3s-15,9.3-23.1,7
			c-11.8-3.4-17.2-17.3-17.8-29.5c-0.6-12.3,1.8-24.9-1.7-36.6c-1-3.3-2.9-6.9-6.2-7.7c-3.4-0.9-6.9,1.4-9.3,4
			c-20.1,20.7-9.3,55.7-19.1,82.9c-1.4,3.8-3.3,7.7-6.8,9.7c-3.5,2.1-8.8,1.4-10.6-2.2c-1-1.9-0.8-4.3-0.5-6.4
			c2.3-21.8,4.6-43.7,6.9-65.5c0.6-5.8,0.6-13-4.3-16.1c-4.7-3-11.1-0.2-14.9,4c-5.6,6.2-7.7,14.8-9.5,22.9
			c-3.5,15.2-7,30.4-10.4,45.6c-2.7,11.9-5.7,24.4-13.7,33.7c-8,9.3-22.8,14-32.8,6.9c-9.5-6.6-10.9-20-9.4-31.5
			c1.5-11.4,4.8-23.2,1.6-34.3c-0.6-2.1-1.5-4.1-3.2-5.5c-4.9-4-12.1,0.6-15.9,5.7c-16.7,22.6-12.9,53.8-20.2,81
			c-1.1,4.3-2.7,8.7-6.1,11.6c-3.4,2.9-9,3.7-12.1,0.5c-2.3-2.3-2.6-5.8-2.6-9.1c-0.1-24.8,10.5-49.7,4.4-73.7
			c-0.5-2.1-1.4-4.4-3.3-5.5c-2.8-1.5-6.2,0.3-8.6,2.3c-10.7,9-15.8,23-18.6,36.7c-2.7,13.7-3.6,27.8-7.9,41.1
			c-4.3,13.3-13,26.1-26.2,30.9s-30.6-2-33.6-15.6c-3.7,6.3-7.5,12.6-11.2,18.9c-2.3,3.8-5.9,12.5-10.4,5.6
			c-4.6-7.1,4.3-24.2,7.4-30.7c9.4-20.3,24.2-40,24-63.3c-0.1-7.5-0.7-17.2,6.2-20.2c6.2-2.8,13.4,3.4,14.5,10.1
			c1.2,6.7-1.6,13.4-3.5,19.9c-5.6,18.4-5.5,38.6,0.2,57c10.6-3.6,15.1-15.9,17.4-26.8c4.1-19.3,5.6-39.4,13.8-57.3
			c8.2-17.9,25.4-33.7,45.1-32.3c4.7,0.3,9.4,1.6,14,1.1c10.3-1.1,17.5-10.2,25.7-16.4s22.4-8.4,27.1,0.8c1.5,3,1.5,6.5,1.5,9.9
			C334.8,144.1,334.7,154.3,334.7,164.4z M583,142.3c2.7,0.1,5.2-0.1,7-0.4c9.1-1.7,17.2-7,23.5-13.7c4-4.3,7.6-10.1,5.8-15.7
			c-1.2-3.8-4.8-6.5-8.6-7.6c-3.8-1.1-7.9-0.9-11.9-0.4c-8.3,1-16.8,3.3-23.5,8.3c-5.1,3.8-14.1,14.5-10.9,21.6
			C566.9,140.1,575.8,142.1,583,142.3z"/>
		<path class="st0" d="M173.1,23.2c-0.4,5.4-2.8,10.9-5.1,15.9c-9.8,21.5-16.9,44.1-21.2,67.3c-0.2,1.2-0.4,2.4,0,3.6
			c1.4,3.3,6.4,2.1,9.3,0.1c10.3-7,19-16.8,30.7-21.2c3.9-1.5,8.4-2.3,12.3-0.6c4.7,2,7.3,7.2,7.5,12.3c0.3,7-3.8,14-10,17.3
			c-4.6,2.4-9.9,2.9-15,3.8c-20,3.5-39.2,15.2-48.6,33.2c-6.3,12.1-7.9,26.1-10,39.6c-4.8,30.7-12.7,60.9-23.5,90
			c-2.2,6-5.8,12.9-12.1,13.6c-13.2,1.4-23.8-21.5-28.1-30.9c-1.4-3.1-2.7-6.5-2.4-10c0.3-3.4,2.8-6.9,6.2-7.3
			c4.9-0.5,8.1,4.9,9.8,9.6c1.7,4.6,4.3,10.2,9.3,10.4c5.5,0.2,8.4-6.3,9.7-11.7c7.1-28.8,12.4-58,15.8-87.4c0.1-1,0.1-2.1-0.7-2.7
			c-0.6-0.4-1.3-0.2-2-0.1c-15.5,3.8-29.4,13.9-37.8,27.4c-1.9,3.1-3.7,6.5-6.4,9c-2.7,2.5-6.9,3.9-10.2,2.3
			c-5.4-2.6-4.9-10.6-2.5-16.1c5.3-12.4,15.3-22.2,26.3-30c11-7.8,23-14.1,34.2-21.5c5.1-3.4,10.3-7.3,13.2-12.8
			c2.1-3.9,2.8-8.3,3.6-12.6c1.9-10.7,3.8-21.4,5.7-32.1c0.4-2.3,0.6-5.1-1.3-6.5c-1.7-1.2-4.1-0.4-6,0.5
			C107.4,83,91.7,91.1,74.9,96.6s-34.8,8.4-52.1,4.8c-4.9-1-10-2.7-13.6-6.3s-5.2-9.5-2.6-13.8c2.4-4,7.6-5.5,12.3-5.1
			c4.7,0.4,9,2.4,13.5,3.8c14.1,4.4,29.5,3.4,43.7-0.4c14.3-3.8,27.7-10.3,40.9-16.8c8.9-4.4,18.5-9.4,22.5-18.5
			c4.8-10.9,0.8-25.6,9.5-33.6c6.8-6.1,19.3-3.3,22.8,5.2C173,18.2,173.3,20.7,173.1,23.2z"/>
		<path class="st0" d="M494.9,54.9c-4.9,0.8-8.1-3.3-5.8-9.8c3.2-8.8,3.5-18.3,6.3-27.2c1.1-3.4,2.5-6.7,5-9.2
			c1.9-1.9,8.4-4.9,11-2.9c4.8,3.7-1.2,17.6-2.2,22c-1,4.4-1.3,8.9-2.3,13.2c-1.1,4.4-3.1,8.7-6.6,11.4
			C498.4,53.8,496.5,54.6,494.9,54.9z"/>
		<path class="st0" d="M177.1,138.6c0.4-5.6,2.9-10.4,7.8-8.9c4,1.2,9.6,4.4,11.2,8.5c2.2,5.4-3,9.7-7.1,12.6
			C180.7,156.7,176.5,146.8,177.1,138.6z"/>
	</g>
</g>
</svg>
