<?xml version="1.0" encoding="utf-8"?>
<!-- Generator: Adobe Illustrator 21.1.0, SVG Export Plug-In . SVG Version: 6.00 Build 0)  -->
<svg version="1.1" id="Layer_1" xmlns="http://www.w3.org/2000/svg" xmlns:xlink="http://www.w3.org/1999/xlink" x="0px" y="0px"
	 viewBox="0 0 363.1 253" style="enable-background:new 0 0 363.1 253;" xml:space="preserve">
<style type="text/css">
	.st0{fill:#DA3D27;stroke:#2A367C;stroke-width:5;stroke-miterlimit:10;}
	.st1{fill:none;stroke:#2A367C;stroke-width:5;stroke-miterlimit:10;}
	.st2{fill:#2A367C;stroke:#2A367C;stroke-width:4;stroke-miterlimit:10;}
	.st3{fill:#F3CC52;stroke:#2A367C;stroke-width:5;stroke-miterlimit:10;}
	.st4{fill:#FFF3DF;stroke:#2A367C;stroke-width:5;stroke-miterlimit:10;}
	.st5{fill:#2A367C;}
</style>
<path class="st0" d="M208.3,124.4h-53.8c-10.8,0-19.6-8.8-19.6-19.6V51c0-10.8,8.8-19.6,19.6-19.6h53.8c10.8,0,19.6,8.8,19.6,19.6
	v53.8C227.9,115.7,219.2,124.4,208.3,124.4z"/>
<path class="st0" d="M183.8,234.8c0,0,17.8-11.5,33-12.6c24.3-1.8,21.9,2,60.7-4.5C277.4,217.8,238.9,249.7,183.8,234.8z"/>
<line class="st1" x1="181" y1="124.5" x2="181" y2="251.5"/>
<path class="st1" d="M181,207.5c0,0,31.3-37,74-30c49,8,59-5,79-34"/>
<path class="st2" d="M212.1,184.5c0,0-16.6-20,15.6-45.5C227.8,139,236.7,163.1,212.1,184.5z"/>
<path class="st2" d="M254.6,202.5c0,0-28.8,15.1-43-18C211.6,184.5,234.5,178.2,254.6,202.5z"/>
<path class="st2" d="M331.6,144c0,0-13.7-12.9-1.3-29.4C330.3,114.6,338.7,124.9,331.6,144z"/>
<path class="st2" d="M358.5,132.4c0,0-6.2,17.8-26.3,13.2C332.2,145.6,338.2,133.7,358.5,132.4z"/>
<path class="st2" d="M278.6,178.9c0,0-9.3-21.7,17.5-31.4C296.1,147.4,295.6,163.9,278.6,178.9z"/>
<path class="st2" d="M308,200c0,0-27.4,6.9-28.3-18.6C279.7,181.4,290.5,185.5,308,200z"/>
<path class="st1" d="M182.1,208.2c0,0-31.3-37-74-30c-49,8-59-5-79-34"/>
<path class="st2" d="M151,185.2c0,0,16.6-20-15.6-45.5C135.3,139.7,126.4,163.8,151,185.2z"/>
<path class="st2" d="M108.5,203.2c0,0,28.8,15.1,43-18C151.4,185.2,128.5,178.9,108.5,203.2z"/>
<path class="st2" d="M31.5,144.7c0,0,13.7-12.9,1.3-29.4C32.8,115.3,24.3,125.6,31.5,144.7z"/>
<path class="st2" d="M4.6,133c0,0,6.2,17.8,26.3,13.2C30.9,146.2,24.9,134.3,4.6,133z"/>
<path class="st2" d="M84.5,179.5c0,0,9.3-21.7-17.5-31.4C67,148.1,67.5,164.5,84.5,179.5z"/>
<path class="st2" d="M55.1,200.7c0,0,27.4,6.9,28.3-18.6C83.4,182.1,72.6,186.2,55.1,200.7z"/>
<path class="st3" d="M191.7,68.7c6.9-11.6,37.8-60.5-11-60.5c-54.1,0-9,59.4-8.5,62c-3.3-0.7-59.5-47.2-64.2,6.2
	c3.3,46.2,51.3,18.6,63.2,10.7c-6.9,11.6-37.8,60.5,11,60.5c54.1,0,9-59.4,8.5-62c3.3,0.7,64.2,43,64.2-6.2
	C254.8,29.5,203.5,60.8,191.7,68.7z"/>
<circle class="st4" cx="181.3" cy="78" r="11.2"/>
<g>
	<circle class="st5" cx="154.2" cy="78" r="5.4"/>
	<circle class="st5" cx="138.2" cy="78" r="3.5"/>
	<circle class="st5" cx="124.6" cy="78" r="2.3"/>
</g>
<g>
	<circle class="st5" cx="207" cy="78" r="5.4"/>
	<circle class="st5" cx="223" cy="78" r="3.5"/>
	<circle class="st5" cx="236.6" cy="78" r="2.3"/>
</g>
<g>
	<circle class="st5" cx="181" cy="51.2" r="5.4"/>
	<circle class="st5" cx="181" cy="35.3" r="3.5"/>
	<circle class="st5" cx="181" cy="21.7" r="2.3"/>
</g>
<g>
	<circle class="st5" cx="181" cy="104.1" r="5.4"/>
	<circle class="st5" cx="181" cy="120.1" r="3.5"/>
	<circle class="st5" cx="181" cy="133.7" r="2.3"/>
</g>
<path class="st0" d="M178.1,234.8c0,0-17.8-11.5-33-12.6c-24.3-1.8-21.9,2-60.7-4.5C84.4,217.8,122.9,249.7,178.1,234.8z"/>
</svg>
