<?xml version="1.0" encoding="utf-8"?>
<!-- Generator: Adobe Illustrator 21.1.0, SVG Export Plug-In . SVG Version: 6.00 Build 0)  -->
<svg version="1.1" id="Layer_1" xmlns="http://www.w3.org/2000/svg" xmlns:xlink="http://www.w3.org/1999/xlink" x="0px" y="0px"
	 viewBox="0 0 128 100" style="enable-background:new 0 0 128 100;" xml:space="preserve">
<style type="text/css">
	.st0{fill:#DA3D27;stroke:#2A367C;stroke-width:2.25;stroke-miterlimit:10;}
	.st1{fill:#2A367C;}
	.st2{fill:none;stroke:#2A367C;stroke-width:1.5858;stroke-miterlimit:10;}
	.st3{fill:#F3CC52;stroke:#2A367C;stroke-width:2.25;stroke-miterlimit:10;}
	.st4{fill:#2A367C;stroke:#2A367C;stroke-width:1.5858;stroke-miterlimit:10;}
	.st5{fill:#FFF3DF;stroke:#2A367C;stroke-width:1.5858;stroke-miterlimit:10;}
	.st6{fill:#DA3D27;}
	.st7{fill:#FFF3DF;}
	.st8{fill:none;stroke:#2A367C;stroke-width:2.3787;stroke-miterlimit:10;}
</style>
<path class="st0" d="M39.4,51.1l7,24.8c0,0-24.7-7.1-40.8-7.5c-3.2,0.4-4.2,2.7-4.2,1.4C1.4,63,39.4,51.1,39.4,51.1z"/>
<path class="st0" d="M105.6,22.9L105.6,22.9c-1.4-5-6-8.6-11.4-8.6c-6.5,0-11.9,5.3-11.9,11.9c0,0-2.7,11.2-13.7,11.8l32.7,21.9
	c0,0,2.9-4.3,0.1-21.9c-1.3-13,12.1-9.7,12.1-9.7C110.6,23.5,105.6,22.9,105.6,22.9z"/>
<g>
	<g>
		<ellipse id="XMLID_1_" class="st1" cx="68.7" cy="59.9" rx="32.7" ry="21.9"/>
	</g>
	<g>
		<ellipse id="XMLID_2_" class="st2" cx="68.7" cy="59.9" rx="32.7" ry="21.9"/>
	</g>
</g>
<path class="st3" d="M85.2,54.2c0,16.3-12.5,19.3-28.7,19.3c-13.5,0-27.2-6.7-30.5-13c0,0,13.3-16.1,29.6-20.8
	C69,35.9,85.2,38,85.2,54.2z"/>
<path class="st4" d="M99.7,14.3c0,0,14.3-17.8,24.8-11.3c2.5,1.7,3.4,7.4-1.4,7.4c-0.2-3.4-5.7-5.6-8.3-5.1
	c-5.6,1-10.1,3.9-14.8,8.9H99.7z"/>
<circle class="st5" cx="95.6" cy="22.5" r="2.6"/>
<path class="st6" d="M48.2,56.9c0.5-1,3.8-7.4-2.3-7.4c-6.1,0-2.2,6.5-1.6,7.6c-0.9-0.5-7.7-4-7.7,2.1c0,6.7,7.8,1.1,7.8,1.1
	s-4.7,8.1,2.1,8.1c6.1,0,2.5-6.9,1.9-8c1.2,0.6,7.2,4.2,7.2-1.8C55.6,52.4,49.1,56.4,48.2,56.9z"/>
<circle class="st7" cx="46.4" cy="58.9" r="1.3"/>
<path class="st6" d="M72.1,51.8c0.6-1.1,4.1-8.1-2.6-8.1c-6.7,0-2.4,7.2-1.7,8.3c-1-0.5-8.4-4.4-8.4,2.3c0,7.4,8.6,1.2,8.6,1.2
	s-5.1,8.9,2.3,8.9c6.7,0,2.7-7.6,2.1-8.7c1.3,0.7,7.9,4.6,7.9-2C80.2,47,73.1,51.3,72.1,51.8z"/>
<circle class="st7" cx="70.2" cy="54" r="1.4"/>
<polyline class="st8" points="64.3,81.7 65.8,97 73.4,97 "/>
<polyline class="st8" points="78.7,80.7 82.5,94.2 88.6,94.2 "/>
<circle class="st7" cx="98.2" cy="59" r="2.3"/>
<circle class="st7" cx="91.1" cy="57.6" r="2.3"/>
<circle class="st7" cx="93" cy="70.8" r="2.3"/>
<circle class="st7" cx="87.1" cy="73.2" r="2.3"/>
<circle class="st7" cx="79.7" cy="77.2" r="2.3"/>
<circle class="st7" cx="72.8" cy="74.8" r="2.3"/>
<circle class="st7" cx="80.8" cy="70.7" r="2.3"/>
<circle class="st7" cx="93.5" cy="63.5" r="2.3"/>
<circle class="st7" cx="87.1" cy="65.8" r="2.3"/>
</svg>
